<?xml version="1.0" encoding="utf-8"?>
<!-- Generator: Adobe Illustrator 15.0.2, SVG Export Plug-In . SVG Version: 6.00 Build 0)  -->
<!DOCTYPE svg PUBLIC "-//W3C//DTD SVG 1.1//EN" "http://www.w3.org/Graphics/SVG/1.1/DTD/svg11.dtd">
<svg version="1.1" id="Layer_1" xmlns="http://www.w3.org/2000/svg" xmlns:xlink="http://www.w3.org/1999/xlink" x="0px" y="0px"
	 width="512px" height="564.683px" viewBox="0 0 512 564.683" enable-background="new 0 0 512 564.683" xml:space="preserve">
<path d="M0,395.581l19.943-14.261l89.392,150.078l370.507-223.426l19.961,23.773L109.335,564.683L0,395.581z M7.523,314.212
	l15.194-9.499l89.391,154.821l370.524-218.675l15.176,28.522l-385.7,228.192L7.523,314.212z M2.703,228.181L397.915,0L512,197.612
	L116.794,425.793L2.703,228.181z M259.407,123.602c-47.259,0-85.568,38.311-85.568,85.568s38.31,85.573,85.568,85.573
	c47.264,0,85.567-38.315,85.567-85.573S306.671,123.602,259.407,123.602z M298.767,263.201l-12.995,7.512l-7.154-12.379
	l-13.681,5.33l-11.429,1.689l-5.02-17.616l11.91-1.425l12.906-5.072c3.894-2.275,6.709-4.873,8.456-7.793
	c1.735-2.921,1.899-5.718,0.469-8.392c-1.442-2.492-3.964-3.905-7.541-4.258l-14.179,1.319c-8.351,1.742-15.704,1.918-22.066,0.528
	c-6.356-1.39-11.43-5.242-15.212-11.563c-3.441-6.017-4.444-12.209-3.014-18.578c1.425-6.362,5.377-12.344,11.857-17.938
	l-7.219-12.502l12.912-7.459l6.686,11.581l11.968-4.938l9.529-1.683l4.773,17.158l-8.802,1.161l-13.464,5.459
	c-4.158,2.516-6.656,5.025-7.482,7.523c-0.827,2.504-0.651,4.715,0.539,6.632c1.149,2.111,3.513,3.29,7.09,3.536l15.839-1.653
	c9.411-1.776,16.965-1.653,22.664,0.369c5.7,2.029,10.251,6.063,13.651,12.121c3.472,6.028,4.504,12.379,3.073,19.047
	c-1.431,6.667-5.7,12.947-12.808,18.858L298.767,263.201z"/>
</svg>
