<?xml version="1.0" encoding="UTF-8"?>
<!-- Generator: Adobe Illustrator 15.0.2, SVG Export Plug-In . SVG Version: 6.00 Build 0)  -->
<!DOCTYPE svg PUBLIC "-//W3C//DTD SVG 1.1//EN" "http://www.w3.org/Graphics/SVG/1.1/DTD/svg11.dtd">
<svg xmlns="http://www.w3.org/2000/svg" xmlns:xlink="http://www.w3.org/1999/xlink" version="1.1" id="Layer_1" x="0px" y="0px" width="512px" height="738.652px" viewBox="0 0 512 738.652" enable-background="new 0 0 512 738.652" xml:space="preserve">
<path d="M482.843,0H512v699.776c0,21.47-17.407,38.876-38.877,38.876h-19.438c-21.47,0-38.877-17.406-38.877-38.876V505.395h-38.876  C375.933,58.314,482.843,0,482.843,0z M142.674,738.652h-19.438c-21.47,0-38.876-17.406-38.876-38.876V311.012  c-12.956,0-25.921,0-42.113-17.815c-16.202-17.824-30.781-53.455-40.5-97.191C-7.973,116.629,26.044,0,26.044,0l24.297,184.663h9.72  L94.078,0l34.017,184.663h9.72L171.831,0l34.017,184.663h9.72L239.865,0c0,0,34.017,116.629,24.297,196.005  c-9.719,43.736-24.297,79.367-40.499,97.191c-16.192,17.815-29.157,17.815-42.113,17.815v388.765  C181.55,721.246,164.143,738.652,142.674,738.652z" fill="#000000"/>
</svg>
