<?xml version="1.0" encoding="utf-8"?>
<!-- Generator: Adobe Illustrator 15.0.2, SVG Export Plug-In . SVG Version: 6.00 Build 0)  -->
<!DOCTYPE svg PUBLIC "-//W3C//DTD SVG 1.1//EN" "http://www.w3.org/Graphics/SVG/1.1/DTD/svg11.dtd">
<svg version="1.1" id="Layer_1" xmlns="http://www.w3.org/2000/svg" xmlns:xlink="http://www.w3.org/1999/xlink" x="0px" y="0px"
	 width="512px" height="433.899px" viewBox="0 0 512 433.899" enable-background="new 0 0 512 433.899" xml:space="preserve">
<g>
	<path d="M124.474,72.685h39.175V39.856h183.418v33.517h39.165V15.72h-0.013C386.145,7.049,379.11,0.025,370.434,0l0,0H140.275l0,0
		c-0.016,0-0.028,0-0.035,0c-8.758,0-15.851,7.108-15.851,15.86c0,0.286,0.068,0.548,0.084,0.834V72.685z"/>
	<path d="M95.196,433.899h321.479V107.556H95.196V433.899z M158.84,247.871c0-2.603,2.303-4.899,4.896-4.899l65.237,0.007v-65.237
		c0-2.705,2.194-4.896,4.896-4.896h45.704c2.702,0,4.893,2.19,4.893,4.901v65.231h65.247c2.701,0,4.898,2.19,4.898,4.893v45.701
		c0,1.356-0.554,2.576-1.438,3.46c-0.891,0.891-2.11,1.438-3.461,1.438h-65.247v65.24c0,1.307-0.517,2.546-1.425,3.461
		c-0.922,0.915-2.166,1.438-3.468,1.438h-45.697c-1.298,0-2.543-0.517-3.461-1.438c-0.919-0.915-1.432-2.154-1.432-3.461v-65.246
		h-65.247c-1.301,0-2.543-0.518-3.461-1.433c-0.918-0.921-1.435-2.166-1.435-3.46V247.871z"/>
	<path d="M25.483,107.562C11.416,107.562,0,118.952,0,133.032c0,0.34,0.084,0.65,0.103,0.983v273.703
		c-0.006,0.218-0.065,0.424-0.065,0.647c0,14.043,11.404,25.459,25.453,25.483v0.05h37.983V107.556L25.483,107.562L25.483,107.562z"
		/>
	<path d="M511.981,408.204V132.898h-0.125c-0.074-13.989-11.44-25.35-25.458-25.35h-37.983v326.345h37.877v-0.019
		c0.081,0,0.144,0.019,0.225,0.019c14.073,0,25.483-11.403,25.483-25.483C512,408.342,511.981,408.279,511.981,408.204z"/>
</g>
</svg>
