<?xml version="1.0" encoding="utf-8"?>
<!-- Generator: Adobe Illustrator 15.0.2, SVG Export Plug-In . SVG Version: 6.00 Build 0)  -->
<!DOCTYPE svg PUBLIC "-//W3C//DTD SVG 1.1//EN" "http://www.w3.org/Graphics/SVG/1.1/DTD/svg11.dtd">
<svg version="1.1" id="Layer_1" xmlns="http://www.w3.org/2000/svg" xmlns:xlink="http://www.w3.org/1999/xlink" x="0px" y="0px"
	 width="511.998px" height="463.991px" viewBox="0 0 511.998 463.991" enable-background="new 0 0 511.998 463.991"
	 xml:space="preserve">
<g>
	<path d="M26.5,236.097L255.996,37.194l229.511,198.902c3.031,2.625,6.781,3.906,10.484,3.906c4.484,0,8.938-1.891,12.094-5.5
		c5.796-6.687,5.062-16.78-1.594-22.593L266.495,3.914c-6.016-5.219-14.937-5.219-20.952,0l-85.545,74.108V48.007
		c0-17.663-14.328-31.999-32-31.999c-17.655,0-31.999,14.336-31.999,31.999v85.467L5.516,211.91
		c-6.656,5.781-7.406,15.906-1.609,22.593C9.735,241.159,19.812,241.894,26.5,236.097z M191.997,303.994h127.997v159.997h95.998
		c17.672,0,32-14.344,32-32V275.183c0-9.625-4.281-18.664-11.703-24.742L276.292,119.271c-5.891-4.836-13.094-7.266-20.296-7.266
		c-7.203,0-14.391,2.43-20.281,7.266L75.718,250.44c-7.422,6.047-11.719,15.117-11.719,24.742v156.809c0,17.656,14.344,32,32,32
		h95.998V303.994z"/>
</g>
</svg>
