<?xml version="1.0" encoding="utf-8"?>
<!-- Generator: Adobe Illustrator 16.0.0, SVG Export Plug-In . SVG Version: 6.00 Build 0)  -->
<!DOCTYPE svg PUBLIC "-//W3C//DTD SVG 1.1//EN" "http://www.w3.org/Graphics/SVG/1.1/DTD/svg11.dtd">
<svg version="1.1" id="Layer_1" xmlns="http://www.w3.org/2000/svg" xmlns:xlink="http://www.w3.org/1999/xlink" x="0px" y="0px"
	 width="834px" height="1000px" viewBox="0 0 834 1000" enable-background="new 0 0 834 1000" xml:space="preserve">
<path fill="#FFFFFF" d="M52.5,942.625c-15,0-27.5-5.208-37.5-15.625S0,904.708,0,891.375v-521.25c0-14.167,5-26.25,15-36.25l235-235
	c9.167-9.167,20.417-14.167,33.75-15s25,2.917,35,11.25l223.75,178.75L745,72.625c16.667-16.667,35.625-20,56.875-10
	s31.875,25.833,31.875,47.5v520c0,14.167-5.417,26.667-16.25,37.5l-233.75,233.75c-9.167,9.167-20.625,14.167-34.375,15
	s-25.625-2.917-35.625-11.25L290,726.375L88.75,927.625C78.75,937.625,66.667,942.625,52.5,942.625z M103.75,765.125
	c101.667-100,153.75-150.833,156.25-152.5v-377.5l-156.25,156.25V765.125z M318.75,616.375l202.5,161.25v-388.75l-208.75-165v388.75
	c0.833,0.833,1.875,1.667,3.125,2.5S317.917,616.375,318.75,616.375z M728.75,608.875v-373.75
	C627.083,335.958,575,387.208,572.5,388.875v376.25L728.75,608.875z"/>
</svg>
