<?xml version="1.0" encoding="utf-8"?>
<!-- Generator: Adobe Illustrator 16.0.0, SVG Export Plug-In . SVG Version: 6.00 Build 0)  -->
<!DOCTYPE svg PUBLIC "-//W3C//DTD SVG 1.1//EN" "http://www.w3.org/Graphics/SVG/1.1/DTD/svg11.dtd">
<svg version="1.1" id="Layer_1" xmlns="http://www.w3.org/2000/svg" xmlns:xlink="http://www.w3.org/1999/xlink" x="0px" y="0px"
	 width="1000px" height="1000px" viewBox="0 0 1000 1000" enable-background="new 0 0 1000 1000" xml:space="preserve">
<path fill="#FFFFFF" d="M0,890.632c0-31.248,11.067-57.938,33.201-80.073L292.95,550.811
	c-28.644-54.685-42.966-113.274-42.966-175.771c0-102.858,36.456-191.069,109.368-264.632C432.264,36.845,520.8,0.063,624.96,0.063
	s192.696,36.782,265.608,110.345c72.912,73.563,109.367,162.099,109.367,265.608c0,103.508-36.455,191.719-109.367,264.632
	C817.656,713.561,729.12,750.017,624.96,750.016c-62.496,0-121.086-14.321-175.771-42.966L189.441,966.799
	C167.307,988.934,140.616,1000,109.368,1000c-29.946,0-55.661-10.741-77.144-32.224C10.741,946.293,0,920.579,0,890.632L0,890.632z
	 M54.684,889.655c0,14.974,5.534,27.993,16.601,39.06s24.087,16.601,39.06,16.602c14.973,0,28.318-5.858,40.037-17.577
	l251.938-251.938c-29.946-22.134-55.986-48.174-78.12-78.12L72.262,849.619C60.544,861.337,54.685,874.683,54.684,889.655
	L54.684,889.655z M312.48,375.04c0,85.932,30.597,159.495,91.791,220.688c61.193,61.194,134.757,91.791,220.688,91.791
	s159.495-30.597,220.688-91.791c61.194-61.193,91.791-134.757,91.791-220.688c0-85.932-30.597-159.495-91.791-220.689
	C784.455,93.157,710.892,62.56,624.96,62.56s-159.495,30.597-220.689,91.791C343.077,215.545,312.479,289.108,312.48,375.04
	L312.48,375.04z M406.224,375.04c0-59.892,21.483-111.321,64.449-154.287s94.396-64.449,154.287-64.449
	c10.416,0,15.624,5.208,15.624,15.624s-5.208,15.624-15.624,15.624c-52.08,0-96.348,18.229-132.804,54.684
	c-36.456,36.456-54.685,80.724-54.685,132.804c0,10.416-5.208,15.624-15.624,15.624S406.224,385.456,406.224,375.04L406.224,375.04z
	"/>
</svg>
